<?xml version="1.0" standalone="no"?>
<!DOCTYPE svg PUBLIC "-//W3C//DTD SVG 20010904//EN"
 "http://www.w3.org/TR/2001/REC-SVG-20010904/DTD/svg10.dtd">
<svg version="1.0" xmlns="http://www.w3.org/2000/svg"
 width="237.000000pt" height="237.000000pt" viewBox="0 0 237.000000 237.000000"
 preserveAspectRatio="xMidYMid meet">
<metadata>
Created by potrace 1.11, written by Peter Selinger 2001-2013
</metadata>
<g transform="translate(0.000000,237.000000) scale(0.100000,-0.100000)"
fill="#000000" stroke="none">
<path d="M326 1655 c-11 -8 -15 -15 -9 -15 6 0 16 7 23 15 16 19 11 19 -14 0z"/>
<path d="M600 1661 c-8 -6 -18 -7 -23 -4 -5 3 -1 -6 8 -21 16 -23 34 -39 20
-17 -3 5 -1 12 4 15 5 4 12 -2 16 -13 3 -11 13 -22 22 -26 14 -5 14 -2 -2 15
-17 18 -17 23 -5 32 12 8 12 9 -2 4 -20 -6 -34 10 -16 17 7 3 9 6 3 6 -5 0
-17 -3 -25 -8z"/>
<path d="M736 1652 c-3 -5 1 -9 9 -9 8 0 12 4 9 9 -3 4 -7 8 -9 8 -2 0 -6 -4
-9 -8z"/>
<path d="M351 1645 c-1 -6 4 -16 11 -23 8 -8 8 -15 0 -25 -7 -8 -8 -18 -4 -22
4 -5 1 -5 -6 -1 -7 4 -10 16 -7 26 7 22 -20 34 -43 20 -14 -9 -12 -10 8 -5
l25 6 -24 -19 -24 -19 21 -21 20 -20 -21 -6 c-19 -5 -20 -8 -7 -16 8 -5 13
-10 10 -11 -34 -6 -50 -4 -46 7 3 7 0 16 -7 20 -7 4 -9 3 -4 -1 4 -5 0 -19 -9
-33 -9 -13 -11 -22 -6 -18 6 3 13 2 16 -3 3 -5 -3 -11 -14 -14 -20 -5 -25 -43
-5 -45 5 0 20 -3 33 -6 16 -3 22 -1 19 7 -2 7 -10 12 -18 13 -32 2 -39 4 -39
12 0 5 7 9 15 9 8 0 12 -4 9 -9 -3 -4 0 -8 5 -8 6 0 11 7 11 16 0 9 6 14 13
11 6 -2 11 -12 11 -21 -1 -9 3 -15 10 -13 6 3 9 11 8 18 -11 41 -9 49 16 65
26 17 27 17 12 -2 -14 -18 -14 -18 5 -4 19 14 19 14 6 -3 -12 -15 -12 -20 -2
-27 9 -5 10 -10 2 -14 -6 -4 -15 -4 -21 -1 -5 3 -10 2 -10 -3 0 -6 7 -12 15
-16 8 -3 15 0 15 6 0 7 5 6 15 -2 12 -10 14 -8 10 9 -2 12 0 19 6 16 5 -4 9
-12 9 -19 0 -8 7 -19 15 -26 9 -8 15 -9 15 -2 0 6 -4 13 -10 17 -5 3 -7 12 -3
20 3 10 -1 15 -12 15 -9 0 -13 5 -9 11 4 8 9 8 17 0 7 -7 14 -7 24 0 10 9 9
16 -6 38 -12 16 -16 32 -12 40 6 9 11 10 15 2 4 -6 2 -11 -5 -11 -19 0 -1 -13
23 -17 18 -3 19 -1 8 12 -7 9 -10 18 -6 22 3 3 6 1 6 -5 0 -7 3 -11 8 -11 4 1
14 1 22 0 11 -1 12 -3 3 -9 -8 -5 -9 -13 -3 -22 8 -12 10 -12 10 4 0 12 5 16
15 13 8 -4 17 -2 20 3 4 6 -3 10 -14 10 -12 0 -21 4 -21 9 0 15 33 22 44 10 8
-9 7 -10 -3 -4 -9 5 -12 4 -7 -3 10 -17 19 -15 34 9 10 16 10 20 0 18 -23 -3
-52 1 -46 6 9 9 68 13 62 4 -3 -5 0 -9 5 -9 6 0 1 -10 -10 -21 l-22 -22 23
-17 c17 -13 20 -19 10 -25 -9 -6 -11 -4 -5 5 6 10 4 12 -8 7 -9 -3 -19 -2 -22
3 -4 6 -11 10 -17 10 -6 0 -6 -6 2 -15 7 -9 10 -18 7 -22 -4 -3 -1 -13 6 -21
10 -13 9 -14 -3 -7 -21 13 -71 13 -67 1 2 -6 12 -10 22 -8 14 3 15 1 4 -11
-12 -13 -15 -13 -22 -1 -4 8 -13 14 -19 14 -9 0 -9 -3 0 -12 7 -7 12 -16 12
-21 0 -4 -11 5 -24 20 -24 27 -25 27 -23 6 1 -13 7 -23 14 -23 7 0 13 -4 13
-10 0 -5 -3 -9 -7 -9 -5 1 -11 0 -15 -1 -10 -3 -26 -7 -35 -9 -4 0 2 -8 13
-17 18 -15 18 -15 -3 -5 -16 8 -23 8 -26 -2 -4 -8 -6 -9 -6 0 -1 6 6 19 15 27
18 19 19 17 -26 21 -39 3 -64 -11 -56 -32 4 -9 1 -11 -6 -7 -16 10 -78 12 -72
2 3 -4 0 -8 -7 -8 -7 0 -10 -3 -7 -6 4 -3 16 -1 27 6 13 7 21 7 21 1 0 -6 6
-8 14 -5 17 6 31 -12 16 -21 -6 -4 -7 -11 -4 -17 4 -6 2 -8 -4 -4 -6 3 -15 -2
-21 -11 -6 -11 -11 -13 -11 -5 0 7 -4 11 -8 8 -5 -3 -9 1 -9 9 0 11 4 12 13 4
10 -8 12 -6 11 10 -1 12 -4 21 -8 21 -11 0 -29 -27 -22 -33 3 -4 0 -7 -8 -7
-8 0 0 -9 16 -20 17 -11 25 -20 19 -20 -5 0 -15 5 -22 12 -9 9 -12 9 -12 -1 0
-7 -5 -9 -12 -5 -7 5 -8 3 -3 -6 4 -7 2 -16 -6 -20 -7 -5 -13 -21 -14 -37 0
-19 -6 -27 -15 -25 -10 1 -8 -3 4 -13 11 -8 29 -13 40 -9 15 4 17 3 7 -4 -11
-8 -11 -10 0 -14 8 -3 10 -9 6 -14 -4 -5 -12 -2 -16 5 -5 7 -13 11 -19 7 -6
-3 -13 -2 -17 3 -7 12 -35 3 -35 -11 0 -6 7 -5 16 3 13 11 15 11 14 -2 -4 -28
0 -40 13 -33 6 4 9 4 5 -1 -4 -4 -2 -15 5 -24 11 -14 10 -15 -7 -1 -18 14 -19
13 -13 -3 4 -10 7 -20 7 -23 0 -12 58 -31 71 -23 12 8 6 13 -13 10 -4 0 -5 6
-1 15 5 15 7 15 15 0 14 -25 30 -9 17 17 -10 21 -9 21 5 3 12 -15 13 -22 4
-34 -18 -21 -19 -43 -2 -59 8 -8 14 -10 14 -5 0 5 -3 12 -7 16 -4 3 -8 13 -9
21 -2 11 5 14 22 11 20 -4 22 -2 15 12 -6 11 -5 23 4 35 10 14 14 15 18 4 3
-8 1 -19 -4 -24 -6 -6 -3 -15 8 -24 16 -13 17 -12 5 2 -10 14 -10 18 4 23 14
5 14 9 3 24 -11 14 -11 15 1 5 15 -14 23 -46 9 -37 -15 9 -10 -3 8 -17 11 -10
14 -10 9 -1 -4 7 -2 12 4 12 6 0 8 5 4 12 -5 7 -3 8 6 3 10 -6 12 -4 7 8 -9
24 0 21 14 -4 7 -13 7 -19 1 -15 -6 3 -13 2 -17 -4 -3 -5 -1 -10 6 -10 6 0 9
-8 6 -20 -3 -13 -1 -18 5 -13 6 3 17 -2 25 -12 8 -12 13 -14 13 -6 0 8 -7 19
-16 26 -22 16 -6 49 16 35 13 -8 12 -10 -2 -10 -10 0 -18 -4 -18 -10 0 -13 27
-13 35 0 8 13 25 3 24 -13 0 -9 -2 -8 -6 1 -5 13 -23 7 -23 -8 0 -12 103 -5
128 9 11 6 22 7 26 4 3 -3 6 -2 6 3 0 6 6 18 13 28 12 16 14 16 14 2 0 -9 -4
-16 -9 -16 -4 0 -8 -10 -8 -21 0 -16 -3 -19 -13 -11 -8 7 -17 6 -30 -3 -10 -7
-14 -16 -9 -19 6 -3 13 1 16 10 8 22 26 8 21 -18 -3 -11 -1 -17 3 -14 4 4 7
13 7 18 0 6 6 13 13 15 6 3 12 -2 12 -11 0 -9 3 -16 8 -17 39 -5 60 -5 56 2
-2 4 5 10 16 14 11 4 18 10 15 15 -3 4 -2 16 1 25 6 14 8 13 21 -5 8 -12 19
-17 26 -13 31 19 61 -7 37 -31 -8 -8 -9 -6 -5 7 5 10 2 17 -6 17 -7 0 -9 -3
-6 -7 4 -3 2 -12 -5 -20 -9 -11 -8 -13 3 -11 8 2 13 -3 11 -10 -2 -10 2 -10
18 -2 11 6 20 8 20 4 0 -3 6 -1 13 5 8 6 18 7 23 3 4 -4 3 0 -3 8 -10 13 -8
16 6 16 10 0 18 -6 17 -13 -1 -6 3 -11 9 -10 5 1 9 9 7 17 -1 12 1 12 10 -2
11 -15 13 -15 30 4 10 12 18 17 18 11 0 -5 -3 -13 -7 -17 -11 -11 -12 -37 -1
-30 5 3 7 8 4 11 -8 8 34 44 44 38 6 -4 15 -3 22 1 8 5 6 10 -8 16 -18 8 -18
8 0 5 11 -1 20 -9 22 -19 1 -12 -5 -15 -22 -13 -29 3 -41 -12 -25 -28 9 -9 11
-8 6 3 -4 11 1 16 15 16 11 0 20 -5 20 -11 1 -5 7 1 15 15 10 19 11 28 2 40
-6 8 -1 6 12 -5 22 -18 24 -19 18 -2 -4 10 -7 23 -7 28 0 6 -5 7 -12 3 -7 -4
-8 -3 -4 5 9 14 26 5 26 -15 0 -8 5 -12 10 -9 6 4 7 11 4 17 -5 7 -2 8 5 3 9
-5 10 -10 2 -18 -18 -18 -13 -31 6 -16 11 10 14 10 9 2 -4 -7 -3 -13 3 -13 5
0 13 4 16 10 9 15 55 -19 48 -36 -3 -8 -1 -14 3 -14 15 1 44 27 37 33 -3 4
-11 0 -17 -8 -9 -13 -11 -11 -13 11 0 15 2 23 5 18 10 -13 73 -13 69 1 -2 5
-14 9 -26 9 -26 -2 -19 9 8 13 11 1 22 -5 26 -14 5 -15 7 -15 15 -3 7 11 10
11 10 2 0 -7 -7 -15 -15 -18 -20 -8 -19 -17 6 -32 19 -12 20 -11 14 7 -4 14 0
23 17 31 21 10 21 10 6 -3 -22 -17 -23 -24 -3 -24 8 0 15 3 15 7 0 4 7 7 16 7
15 0 14 -2 -1 -13 -10 -8 -22 -11 -26 -8 -4 2 -7 -5 -6 -16 2 -25 2 -25 28 1
17 17 23 19 30 8 4 -7 5 -17 3 -21 -7 -11 3 -10 26 2 12 6 17 18 15 30 -2 12
0 18 6 14 6 -3 17 2 25 12 14 18 14 18 4 -3 -6 -13 -14 -23 -19 -23 -4 0 -8
-7 -8 -15 0 -8 7 -15 16 -15 13 0 14 -2 2 -9 -8 -5 -29 -8 -48 -6 -18 1 -36
-2 -39 -6 -3 -5 -10 -9 -15 -9 -6 0 -7 5 -3 12 5 7 3 8 -5 4 -7 -5 -21 0 -33
11 -21 18 -21 18 -15 -2 7 -20 7 -20 -8 -1 -8 11 -15 23 -15 26 0 14 -41 3
-58 -15 -9 -10 -12 -15 -5 -11 6 3 13 3 16 -1 2 -5 3 -3 1 3 -1 7 8 11 21 10
18 -1 23 -6 21 -21 -2 -11 -9 -19 -16 -17 -6 1 -9 -2 -5 -8 5 -8 11 -7 22 2 8
6 24 13 35 15 17 3 19 1 9 -11 -9 -11 -9 -16 0 -22 7 -4 9 -3 5 4 -9 15 13 27
27 13 14 -14 30 -15 22 -1 -3 6 3 10 14 10 23 0 29 -16 9 -22 -9 -3 -9 -6 0
-12 7 -4 12 -2 12 4 0 6 5 8 12 4 7 -4 8 -3 4 4 -4 7 7 18 28 29 29 13 33 18
21 27 -12 9 -12 14 0 30 8 11 15 14 15 8 0 -7 5 -12 11 -12 5 0 7 4 4 10 -9
15 1 12 14 -4 10 -12 8 -14 -13 -12 -33 4 -32 -4 2 -28 15 -11 21 -13 15 -6
-7 8 -13 18 -13 22 0 11 23 6 32 -7 5 -6 8 -5 8 3 0 7 5 10 10 7 8 -5 7 -12
-2 -23 -9 -12 -6 -11 10 2 14 12 22 15 22 6 0 -7 7 -10 15 -7 13 6 29 -8 30
-25 0 -3 4 -10 9 -15 6 -5 6 -2 1 6 -6 11 -4 13 11 8 18 -7 18 -6 2 6 -18 15
-14 27 9 27 7 0 12 -5 10 -11 -1 -6 4 -13 11 -15 7 -1 8 0 2 3 -7 3 -7 10 2
21 8 10 9 13 1 9 -6 -4 -14 -3 -17 2 -3 5 3 11 14 14 24 6 26 22 5 31 -9 3
-15 0 -15 -9 0 -8 -5 -15 -10 -15 -21 0 7 34 29 35 11 1 19 -1 16 -3 -3 -3 3
-11 13 -18 13 -9 20 -10 31 -1 12 9 13 9 7 0 -4 -7 -2 -13 3 -13 6 0 11 5 11
12 0 6 3 8 7 5 3 -4 -1 -15 -9 -24 -23 -28 -30 -43 -19 -43 6 0 11 8 11 18 0
15 2 15 11 2 9 -12 10 -12 5 4 -5 13 -2 17 9 13 8 -4 17 -1 21 5 4 7 3 8 -4 4
-7 -4 -10 -2 -6 7 2 7 11 14 19 14 8 0 12 -3 10 -7 -2 -4 2 -7 9 -7 9 0 12 7
8 16 -5 14 -4 14 11 2 15 -12 17 -12 11 3 -3 9 -10 17 -15 17 -5 1 -13 2 -18
3 -5 0 -13 4 -16 8 -4 4 5 5 21 2 16 -3 32 -11 36 -17 5 -7 8 -3 8 11 0 13 -4
20 -10 17 -6 -4 -7 1 -3 11 4 11 8 13 11 6 2 -7 9 -9 15 -5 6 4 8 0 5 -9 -4
-8 -2 -21 4 -29 8 -11 9 -10 4 4 -3 9 -1 17 5 17 6 0 8 4 5 8 -6 10 35 9 51
-1 7 -4 15 4 22 23 7 22 7 29 -1 24 -6 -4 -8 -3 -5 3 3 5 0 10 -8 10 -8 0 -12
-5 -8 -10 3 -5 -5 -3 -18 4 -15 7 -19 14 -11 17 6 2 9 9 5 15 -3 7 3 3 15 -7
12 -11 22 -14 22 -8 0 7 5 12 11 12 5 0 8 -4 4 -9 -3 -5 -1 -12 5 -16 5 -3 10
-1 10 6 0 7 3 10 6 6 3 -3 2 -12 -2 -19 -13 -21 -13 -39 -1 -35 7 2 12 10 12
17 0 17 21 24 30 11 4 -7 -1 -9 -12 -5 -14 4 -13 2 5 -14 12 -11 22 -22 22
-25 0 -7 -22 -3 -37 6 -7 5 -13 7 -14 5 0 -2 -2 -12 -4 -22 -2 -10 -10 -23
-17 -27 -9 -6 -6 -8 9 -7 12 1 19 7 16 14 -5 14 14 13 36 0 10 -6 12 -5 7 3
-5 8 0 14 13 18 12 3 21 10 21 15 0 5 -4 7 -9 4 -5 -3 -11 3 -14 15 -5 19 -4
19 17 5 22 -14 23 -13 23 7 1 40 3 48 12 43 5 -4 11 -1 13 6 3 7 7 5 11 -6 4
-10 3 -15 -3 -11 -6 3 -10 1 -10 -5 0 -6 -5 -8 -12 -4 -7 4 -8 3 -4 -4 5 -9
13 -9 29 0 12 7 25 13 30 14 4 1 10 3 15 4 4 1 10 2 15 1 4 0 7 3 7 9 0 14
-13 13 -28 -2 -9 -9 -12 -9 -12 1 0 7 -5 9 -12 5 -7 -4 -8 -3 -4 5 4 6 12 9
17 6 5 -4 17 -1 26 5 17 11 17 11 1 6 -10 -3 -18 -1 -18 4 0 9 14 14 32 11 4
0 4 7 1 16 -4 11 -8 13 -11 5 -7 -23 -19 -12 -15 16 l3 27 -11 -25 c-7 -14
-11 -32 -10 -40 1 -11 -1 -10 -9 3 -15 24 -21 59 -9 52 5 -4 7 -11 4 -16 -4
-5 -2 -9 4 -9 5 0 9 9 8 19 0 11 -5 18 -9 15 -10 -7 -36 48 -31 66 4 13 3 13
-6 0 -5 -8 -7 -18 -4 -24 3 -5 1 -6 -5 -2 -6 3 -13 -2 -17 -13 -5 -18 -7 -17
-33 7 l-27 27 24 13 c17 9 28 9 35 2 7 -7 3 -10 -12 -10 -12 0 -22 -4 -22 -8
0 -13 39 -9 44 4 8 22 -20 37 -45 24 -12 -7 -19 -8 -15 -2 3 6 -3 13 -14 17
-18 6 -24 17 -21 38 0 4 -4 7 -10 7 -6 0 -8 -7 -5 -16 3 -8 2 -12 -3 -9 -5 3
-13 -5 -16 -16 -7 -20 -9 -20 -17 -6 -5 9 -8 20 -8 23 3 12 -24 23 -35 14 -7
-6 -11 -2 -11 10 0 10 3 17 6 15 4 -2 7 2 7 9 0 8 -6 12 -13 9 -9 -3 -12 2 -9
16 2 11 0 23 -5 26 -9 6 -6 37 6 58 6 9 5 9 -7 0 -12 -10 -17 -8 -29 10 -7 12
-13 24 -12 27 1 9 -31 40 -42 39 -6 0 -6 -3 2 -6 6 -2 9 -9 6 -14 -3 -6 -12
-5 -21 3 -15 12 -15 11 -2 -9 9 -16 16 -19 21 -10 4 7 8 8 8 1 0 -5 -7 -19
-15 -30 -9 -11 -13 -13 -10 -4 3 8 1 20 -3 25 -13 18 -74 57 -79 51 -4 -3 -1
-6 5 -6 7 0 12 -8 12 -17 0 -11 -3 -14 -8 -7 -4 6 -14 13 -23 16 -12 5 -16 1
-15 -14 1 -13 -6 -22 -16 -24 -10 -1 -18 2 -18 8 0 6 8 7 18 3 13 -5 14 -4 5
6 -10 10 -17 9 -34 -7 -22 -19 -22 -19 -15 6 7 25 7 25 -15 -3 -18 -23 -24
-26 -37 -15 -13 11 -15 10 -9 -5 5 -14 3 -16 -11 -9 -9 5 -23 7 -29 5 -7 -3
-13 0 -13 6 0 5 9 8 20 6 11 -2 20 0 20 6 0 5 -10 7 -22 5 -13 -3 -27 -5 -31
-5 -4 -1 -3 -9 2 -20 12 -22 5 -31 -23 -30 -19 1 -18 2 3 8 22 6 23 8 8 23
-14 14 -14 17 -2 22 8 3 15 10 15 16 0 6 -11 3 -24 -6 -14 -8 -27 -14 -30 -12
-2 2 -8 0 -12 -4 -4 -5 0 -8 9 -8 9 0 18 -4 22 -10 3 -5 -7 -5 -25 1 -16 6
-30 14 -30 18 0 4 -9 7 -21 8 -13 1 -19 -3 -16 -11 4 -9 -3 -12 -24 -10 -17 2
-28 0 -25 -4 2 -4 0 -14 -5 -22 -7 -11 -8 -10 -6 8 4 26 27 55 27 33 0 -9 4
-9 15 2 9 10 30 14 59 12 36 -2 49 2 63 19 17 19 17 20 1 7 -15 -11 -18 -11
-18 0 0 9 -5 7 -12 -5 -11 -19 -11 -19 -24 -1 -8 10 -14 14 -14 9 0 -5 -9 -10
-20 -11 -11 -1 -18 2 -15 7 3 6 -1 7 -10 3 -14 -5 -14 -8 -3 -15 9 -7 7 -9 -8
-5 -13 3 -25 -3 -33 -15 -7 -12 -18 -17 -28 -14 -13 5 -14 4 -3 -9 8 -9 8 -15
2 -15 -6 0 -14 5 -17 10 -4 6 -11 8 -16 4 -5 -3 -7 -9 -4 -14 3 -4 -3 -17 -13
-29 l-17 -21 -25 27 c-18 19 -20 25 -8 20 10 -3 20 -2 23 3 10 16 -12 20 -31
5 -16 -13 -17 -16 -4 -25 14 -9 13 -11 -9 -14 -5 0 -13 -5 -18 -10 -5 -5 -3
-6 5 -2 6 4 12 3 12 -3 0 -5 -3 -11 -8 -14 -4 -2 -2 -2 5 -1 7 2 11 -9 11 -27
-1 -20 -4 -26 -9 -17 -7 10 -9 10 -9 -1 0 -8 -3 -11 -6 -8 -4 4 -1 14 6 22 7
9 9 15 4 14 -18 -6 -54 13 -54 28 0 18 -22 12 -28 -8 -3 -11 -2 -11 7 1 7 9
11 10 11 3 0 -22 -19 -24 -30 -3 -6 11 -8 20 -5 20 3 0 0 6 -7 14 -7 8 -17 13
-22 13 -13 -3 -16 32 -4 40 7 3 8 1 4 -6 -5 -7 -2 -10 5 -9 7 2 13 -2 14 -9 0
-6 3 -15 8 -19 4 -4 6 4 5 19 -1 14 -5 25 -8 25 -3 0 -7 1 -10 2 -19 7 -39 7
-34 -1 3 -5 -3 -9 -13 -9 -14 0 -15 -2 -4 -9 8 -5 10 -14 6 -22 -6 -9 -10 -8
-15 7 -4 10 -4 24 1 29 4 6 3 17 -3 25 -8 13 -9 12 -5 -2 3 -9 -1 -19 -9 -22
-8 -3 -13 -2 -9 3 3 5 -1 12 -7 14 -10 4 -10 6 0 6 6 1 12 6 12 11 0 6 -11 3
-24 -7 -13 -10 -22 -21 -20 -25 2 -4 0 -10 -6 -13 -6 -4 -10 -3 -9 2 4 21 -2
44 -10 39 -5 -3 -14 1 -21 9 -7 8 -18 15 -24 15 -6 0 -4 -5 4 -10 12 -8 12
-10 1 -10 -8 0 -20 8 -27 18 -13 16 -14 16 -7 -3 6 -18 5 -19 -12 -5 -15 12
-17 12 -10 1 6 -11 4 -13 -10 -7 -15 5 -16 4 -6 -8 9 -11 8 -14 -6 -12 -11 0
-18 -5 -17 -15 2 -19 -24 -19 -36 0 -8 14 -30 7 -30 -10 0 -6 4 -8 9 -4 5 3
12 1 15 -4 4 -5 -2 -8 -11 -7 -20 3 -27 42 -10 53 6 4 7 1 2 -8 -8 -12 -6 -12
8 0 9 7 17 9 17 4 0 -5 7 -10 15 -10 8 0 12 4 9 8 -2 4 2 9 8 12 10 4 10 7 0
18 -11 12 -13 12 -10 -1 2 -10 -6 -15 -29 -15 -18 -1 -36 -4 -39 -8 -4 -4 -13
-2 -20 4 -9 7 -12 6 -10 -5 1 -9 6 -19 11 -23 4 -4 5 -2 0 6 -6 10 -4 12 4 7
12 -8 7 -21 -7 -21 -4 0 -12 -4 -19 -8 -8 -5 -10 0 -7 19 4 22 2 25 -9 16 -10
-9 -19 -8 -35 4 -12 8 -22 12 -22 8 0 -4 -11 3 -25 16 -14 13 -28 20 -32 17
-3 -4 -12 -2 -19 4 -8 7 -14 7 -19 -1 -4 -6 -3 -10 2 -9 25 4 25 -3 -1 -16
-31 -17 -61 -20 -33 -4 9 5 17 15 17 22 0 8 -4 7 -9 -2 -8 -13 -12 -13 -28 0
-17 13 -17 13 -4 -4 13 -17 12 -18 -15 -12 -25 5 -23 3 8 -11 21 -9 35 -20 32
-25 -3 -5 -12 -5 -22 0 -9 4 -23 6 -31 3 -9 -3 -11 0 -7 9 4 8 -2 3 -13 -10
-21 -23 -31 -8 -11 17 7 9 7 9 -2 2 -19 -16 -25 -12 -23 15 2 14 0 23 -5 20
-5 -3 -11 1 -13 7 -3 7 -6 8 -6 3z m-16 -45 c-7 -12 12 -40 27 -40 6 0 8 7 4
15 -9 25 -1 17 32 -29 18 -25 28 -47 23 -50 -5 -4 -13 -1 -16 4 -5 8 -13 6
-24 -4 -20 -18 -37 -10 -21 9 7 9 6 16 -4 24 -10 8 -16 9 -21 1 -3 -5 -12 -10
-18 -10 -7 0 -4 5 6 11 18 10 18 12 -3 31 -20 19 -20 21 -3 34 22 16 26 17 18
4z m289 -16 c3 -8 2 -12 -4 -9 -6 3 -10 10 -10 16 0 14 7 11 14 -7z m260 5 c3
-3 -4 -5 -14 -6 -11 -1 -20 2 -20 7 0 8 25 8 34 -1z m45 -3 c9 -11 9 -16 0
-22 -8 -4 -9 -3 -5 4 11 19 -5 14 -21 -5 -12 -16 -12 -14 -2 10 14 32 13 31
28 13z m821 -11 c0 -8 -2 -15 -4 -15 -2 0 -6 7 -10 15 -3 8 -1 15 4 15 6 0 10
-7 10 -15z m-1149 -2 c0 -5 2 -16 4 -26 2 -11 0 -16 -3 -12 -4 4 -7 10 -7 13
0 4 -4 13 -8 20 -5 7 -4 12 2 12 6 0 11 -3 12 -7z m1304 -54 c9 -16 13 -29 11
-29 -3 0 -13 14 -21 30 -9 18 -21 28 -27 24 -7 -4 -8 -3 -4 5 10 15 23 6 41
-30z m-585 16 c10 -12 10 -15 -2 -15 -8 0 -15 7 -15 15 0 8 1 15 2 15 2 0 8
-7 15 -15z m110 -5 c0 -5 -5 -10 -11 -10 -5 0 -7 5 -4 10 3 6 8 10 11 10 2 0
4 -4 4 -10z m147 -1 c-9 -6 -14 -15 -11 -21 4 -7 2 -8 -5 -4 -14 9 3 36 23 36
6 0 3 -5 -7 -11z m303 -3 c0 -2 -7 -7 -16 -10 -8 -3 -12 -2 -9 4 6 10 25 14
25 6z m-1295 -28 c5 4 5 2 1 -5 -8 -14 -36 -6 -36 9 0 7 5 6 13 -1 8 -6 18 -7
22 -3z m694 -4 c16 19 47 16 47 -4 0 -12 -8 -16 -25 -14 -14 1 -31 -2 -38 -8
-9 -7 -13 -7 -13 1 0 7 -4 10 -9 6 -13 -7 -24 12 -16 26 5 7 13 5 25 -6 15
-13 19 -14 29 -1z m264 -9 c-7 -21 -12 -19 -10 4 0 11 5 18 9 15 4 -3 5 -11 1
-19z m342 15 c-3 -5 -12 -10 -18 -10 -7 0 -6 4 3 10 19 12 23 12 15 0z m-1595
-10 c0 -5 -4 -10 -10 -10 -5 0 -10 5 -10 10 0 6 5 10 10 10 6 0 10 -4 10 -10z
m1280 -14 c0 -3 -4 -8 -10 -11 -5 -3 -10 -1 -10 4 0 6 5 11 10 11 6 0 10 -2
10 -4z m355 -6 c3 -5 1 -10 -4 -10 -6 0 -11 5 -11 10 0 6 2 10 4 10 3 0 8 -4
11 -10z m-1380 -19 c-9 -8 -36 -10 -30 -2 2 4 11 8 20 8 8 0 13 -3 10 -6z
m-205 -46 c0 -8 -2 -15 -4 -15 -2 0 -6 7 -10 15 -3 8 -1 15 4 15 6 0 10 -7 10
-15z m30 11 c0 -3 -4 -8 -10 -11 -5 -3 -10 -1 -10 4 0 6 5 11 10 11 6 0 10 -2
10 -4z m1695 -75 c3 -5 2 -12 -3 -15 -5 -3 -9 1 -9 9 0 17 3 19 12 6z m-98
-16 c0 -8 -4 -12 -9 -9 -5 3 -6 10 -3 15 9 13 12 11 12 -6z m73 11 c0 -2 -7
-7 -16 -10 -8 -3 -12 -2 -9 4 6 10 25 14 25 6z m-1756 -22 c3 -8 2 -12 -4 -9
-6 3 -10 10 -10 16 0 14 7 11 14 -7z m-47 -32 c-15 -3 -16 -6 -5 -20 7 -9 8
-13 2 -9 -14 8 -27 -20 -17 -35 3 -6 1 -8 -5 -4 -5 3 -12 0 -15 -6 -2 -7 -4 1
-3 17 2 41 25 75 45 67 14 -6 13 -7 -2 -10z m1808 -1 c3 -5 2 -12 -3 -15 -5
-3 -9 1 -9 9 0 17 3 19 12 6z m-1775 -11 c0 -5 -5 -10 -11 -10 -5 0 -7 5 -4
10 3 6 8 10 11 10 2 0 4 -4 4 -10z m1899 -31 c-5 -10 -12 -19 -15 -19 -2 0 0
9 6 20 7 14 7 20 0 20 -5 0 -10 5 -10 11 0 8 4 8 15 -1 11 -9 12 -17 4 -31z
m-1925 -15 c3 -8 2 -12 -4 -9 -6 3 -10 10 -10 16 0 14 7 11 14 -7z m1750 -32
c3 -5 -1 -9 -9 -9 -8 0 -12 4 -9 9 3 4 7 8 9 8 2 0 6 -4 9 -8z m176 -16 c0 -2
-7 -7 -16 -10 -8 -3 -12 -2 -9 4 6 10 25 14 25 6z m-1965 -26 c3 -6 -1 -7 -9
-4 -18 7 -21 14 -7 14 6 0 13 -4 16 -10z m505 -4 c0 -2 -8 -10 -17 -17 -16
-13 -17 -12 -4 4 13 16 21 21 21 13z m-400 -26 c-6 -11 -13 -20 -16 -20 -2 0
0 9 6 20 6 11 13 20 16 20 2 0 0 -9 -6 -20z m1700 -27 c0 -8 -5 -13 -12 -11
-18 6 -21 25 -3 25 8 0 15 -7 15 -14z m-1545 -3 c3 -5 1 -10 -4 -10 -6 0 -11
5 -11 10 0 6 2 10 4 10 3 0 8 -4 11 -10z m60 0 c3 -5 1 -10 -4 -10 -6 0 -11 5
-11 10 0 6 2 10 4 10 3 0 8 -4 11 -10z m50 -20 c10 -11 16 -20 13 -20 -3 0
-13 9 -23 20 -10 11 -16 20 -13 20 3 0 13 -9 23 -20z m37 6 c7 4 8 2 4 -5 -9
-13 -26 -5 -25 12 0 9 2 8 6 -1 2 -6 10 -9 15 -6z m458 -6 c0 -5 -2 -10 -4
-10 -3 0 -8 5 -11 10 -3 6 -1 10 4 10 6 0 11 -4 11 -10z m278 -25 c-3 -3 -9 2
-12 12 -6 14 -5 15 5 6 7 -7 10 -15 7 -18z m-619 -7 c-5 -10 -6 -18 -2 -18 11
-1 -29 -24 -44 -26 -7 -1 -15 1 -18 6 -7 12 5 40 18 40 7 0 7 -4 -1 -12 -16
-16 -15 -33 1 -19 8 6 18 7 22 3 5 -4 5 1 2 11 -5 12 -3 16 5 11 7 -5 9 -2 6
8 -4 8 0 15 7 15 10 0 11 -5 4 -19z m484 5 c-3 -7 -9 -10 -14 -7 -14 8 -11 21
5 21 8 0 12 -6 9 -14z m404 8 c8 7 13 8 13 1 0 -16 -33 -24 -42 -10 -4 7 -8
10 -9 6 -8 -42 -2 -53 16 -34 8 8 23 13 32 11 10 -2 21 -4 24 -4 13 -2 19 -33
9 -49 -6 -12 -9 -13 -10 -3 0 7 -6 11 -15 8 -8 -4 -17 -2 -20 4 -4 5 -10 7
-15 4 -5 -3 -11 -1 -15 5 -4 6 -10 8 -15 5 -4 -3 -15 6 -24 20 -9 14 -12 25
-6 25 5 0 10 -4 10 -10 0 -5 5 -10 12 -10 6 0 8 3 5 7 -4 3 -2 12 5 20 7 9 14
11 21 4 7 -7 15 -7 24 0z m-747 -59 c0 -4 -9 -8 -20 -9 -16 -1 -17 1 -7 12 12
13 27 11 27 -3z"/>
<path d="M348 1551 c17 -18 37 -29 43 -26 7 5 6 11 -2 21 -6 7 -16 11 -21 8
-5 -3 -19 2 -31 12 -12 10 -7 3 11 -15z"/>
<path d="M205 1259 c-4 -6 -5 -12 -2 -15 2 -3 7 2 10 11 7 17 1 20 -8 4z"/>
<path d="M1598 1002 c-8 -10 -9 -13 -1 -9 6 4 15 3 18 -3 5 -8 11 -8 20 0 10
8 14 7 18 -2 4 -9 6 -9 6 -1 2 27 -43 38 -61 15z m42 2 c0 -8 -19 -13 -24 -6
-3 5 1 9 9 9 8 0 15 -2 15 -3z"/>
<path d="M397 1643 c-10 -9 -9 -23 1 -23 5 0 9 7 9 15 0 17 -1 18 -10 8z"/>
<path d="M1559 1628 c-6 -21 -5 -38 1 -38 5 0 8 9 7 20 -1 17 -5 26 -8 18z"/>
<path d="M1595 1601 c-3 -5 -2 -12 3 -15 5 -3 9 1 9 9 0 17 -3 19 -12 6z"/>
<path d="M1623 1575 c0 -8 4 -12 9 -9 5 3 6 10 3 15 -9 13 -12 11 -12 -6z"/>
<path d="M1273 1565 c0 -8 4 -12 9 -9 4 3 8 9 8 15 0 5 -4 9 -8 9 -5 0 -9 -7
-9 -15z"/>
<path d="M275 1550 c-3 -5 -1 -10 4 -10 6 0 11 5 11 10 0 6 -2 10 -4 10 -3 0
-8 -4 -11 -10z"/>
<path d="M430 1532 c0 -6 6 -12 13 -15 9 -3 9 -7 -1 -19 -8 -10 -9 -19 -4 -22
6 -3 15 1 21 8 7 8 23 13 36 10 30 -5 42 13 22 33 -13 14 -16 13 -22 -8 l-7
-22 -14 24 c-7 13 -13 18 -14 10 0 -11 -3 -11 -15 -1 -9 8 -15 8 -15 2z m40
-26 c0 -2 -8 -10 -17 -17 -16 -13 -17 -12 -4 4 13 16 21 21 21 13z"/>
<path d="M1265 1529 c-4 -6 -5 -12 -2 -15 2 -3 7 2 10 11 7 17 1 20 -8 4z"/>
<path d="M313 1487 c0 -8 6 -14 13 -14 7 0 10 6 7 14 -3 7 -8 13 -12 13 -4 0
-8 -6 -8 -13z"/>
<path d="M1160 1491 c0 -6 4 -13 10 -16 6 -3 7 1 4 9 -7 18 -14 21 -14 7z"/>
<path d="M1950 1459 c0 -5 5 -7 10 -4 6 3 10 8 10 11 0 2 -4 4 -10 4 -5 0 -10
-5 -10 -11z"/>
<path d="M186 1452 c-3 -5 1 -9 9 -9 8 0 15 4 15 9 0 4 -4 8 -9 8 -6 0 -12 -4
-15 -8z"/>
<path d="M1970 1415 c0 -8 2 -15 4 -15 2 0 6 7 10 15 3 8 1 15 -4 15 -6 0 -10
-7 -10 -15z"/>
<path d="M1999 1413 c-10 -11 -10 -14 -1 -9 15 9 16 -6 1 -21 -8 -8 -7 -13 2
-18 7 -5 10 -4 5 3 -3 6 -2 13 3 17 5 3 9 14 8 25 -2 24 -1 24 -18 3z"/>
<path d="M2085 1390 c-4 -6 -11 -8 -16 -5 -14 10 -11 -2 7 -20 12 -12 19 -13
30 -4 7 6 19 7 26 3 10 -5 10 -4 1 6 -10 10 -15 11 -27 1 -9 -8 -16 -8 -20 -2
-4 5 2 14 11 20 10 6 13 11 6 11 -6 0 -15 -5 -18 -10z"/>
<path d="M265 1370 c-3 -5 -2 -10 4 -10 5 0 13 5 16 10 3 6 2 10 -4 10 -5 0
-13 -4 -16 -10z"/>
<path d="M2115 1290 c3 -5 8 -10 11 -10 2 0 4 5 4 10 0 6 -5 10 -11 10 -5 0
-7 -4 -4 -10z"/>
<path d="M111 1193 c0 -5 4 -17 9 -28 8 -17 8 -16 7 8 -1 15 -5 27 -9 27 -4 0
-8 -3 -7 -7z"/>
<path d="M83 1168 c-11 -19 -13 -39 -1 -32 5 3 7 9 4 12 -3 3 -1 11 5 19 6 7
9 13 6 13 -3 0 -9 -6 -14 -12z"/>
<path d="M140 1133 c0 -14 -2 -15 -9 -4 -13 21 -35 8 -36 -22 -1 -15 0 -25 2
-23 3 2 16 -5 29 -17 34 -29 22 -33 -21 -7 -21 13 -32 26 -28 33 3 7 2 8 -2 4
-5 -4 -10 -15 -11 -23 -1 -9 0 -13 3 -10 7 7 63 -25 63 -37 0 -4 -5 -5 -12 -1
-7 5 -8 3 -4 -5 6 -9 12 -8 26 4 16 14 18 14 34 -7 16 -22 16 -22 6 -1 -5 12
-15 25 -20 28 -6 3 -10 12 -10 18 0 7 11 0 24 -15 19 -21 26 -24 30 -13 3 8
-6 26 -20 40 -15 15 -23 32 -20 41 4 10 2 13 -6 8 -8 -5 -9 -2 -5 9 3 10 2 17
-3 17 -6 0 -10 -8 -10 -17z m-15 -13 c4 -6 11 -8 16 -5 5 4 9 2 9 -4 0 -5 12
-24 27 -43 25 -31 25 -32 3 -12 -14 12 -30 20 -36 17 -12 -4 -37 22 -40 43 -3
16 12 19 21 4z"/>
<path d="M126 1096 c10 -8 21 -12 24 -10 5 6 -21 24 -34 24 -6 0 -1 -6 10 -14z"/>
<path d="M2195 1110 c-3 -5 -1 -10 4 -10 6 0 11 5 11 10 0 6 -2 10 -4 10 -3 0
-8 -4 -11 -10z"/>
<path d="M2016 1055 c-3 -8 -1 -15 4 -15 6 0 10 7 10 15 0 8 -2 15 -4 15 -2 0
-6 -7 -10 -15z"/>
<path d="M1970 1050 c0 -5 5 -10 10 -10 6 0 10 5 10 10 0 6 -4 10 -10 10 -5 0
-10 -4 -10 -10z"/>
<path d="M70 1040 c0 -6 7 -10 15 -10 8 0 15 2 15 4 0 2 -7 6 -15 10 -8 3 -15
1 -15 -4z"/>
<path d="M214 1038 c-4 -5 -4 -11 -1 -14 6 -6 37 6 37 15 0 11 -30 9 -36 -1z"/>
<path d="M295 1030 c3 -5 8 -10 11 -10 2 0 4 5 4 10 0 6 -5 10 -11 10 -5 0 -7
-4 -4 -10z"/>
<path d="M750 1031 c0 -6 6 -11 13 -11 6 0 1 -10 -13 -21 -20 -16 -20 -18 -4
-10 15 7 25 7 34 -2 12 -10 12 -9 2 4 -6 9 -10 18 -7 21 3 3 -1 11 -10 18 -10
8 -15 9 -15 1z"/>
<path d="M797 1023 c-10 -9 -9 -23 1 -23 5 0 9 7 9 15 0 17 -1 18 -10 8z"/>
<path d="M1165 1020 c-4 -6 -17 -8 -31 -6 -14 3 -24 0 -24 -7 0 -7 -4 -6 -10
3 -7 12 -9 10 -7 -7 1 -16 4 -19 14 -12 7 6 18 7 25 3 7 -5 20 -9 28 -9 8 0
14 -6 12 -13 -1 -8 2 -11 8 -7 8 5 7 12 -2 23 -11 13 -10 15 4 9 25 -9 30 7 8
21 -12 7 -21 8 -25 2z"/>
<path d="M1993 1015 c0 -8 4 -12 9 -9 5 3 6 10 3 15 -9 13 -12 11 -12 -6z"/>
<path d="M145 1009 c-4 -6 -5 -12 -2 -15 2 -3 7 2 10 11 7 17 1 20 -8 4z"/>
<path d="M230 998 c-12 -22 -12 -22 6 -6 10 10 15 20 12 24 -4 3 -12 -5 -18
-18z"/>
<path d="M512 1004 c-7 -8 -8 -14 -3 -14 10 0 25 19 20 25 -2 1 -10 -3 -17
-11z"/>
<path d="M1270 1010 c0 -5 5 -10 10 -10 6 0 10 5 10 10 0 6 -4 10 -10 10 -5 0
-10 -4 -10 -10z"/>
<path d="M1748 998 c8 -10 9 -19 3 -22 -5 -3 -11 0 -14 6 -2 7 -4 1 -4 -14 l0
-26 23 25 c21 22 36 48 17 30 -3 -4 -13 -1 -22 6 -14 10 -14 10 -3 -5z"/>
<path d="M1115 970 c-3 -5 -1 -10 4 -10 6 0 11 5 11 10 0 6 -2 10 -4 10 -3 0
-8 -4 -11 -10z"/>
<path d="M1380 970 c0 -5 4 -10 9 -10 6 0 13 5 16 10 3 6 -1 10 -9 10 -9 0
-16 -4 -16 -10z"/>
<path d="M1787 793 c-10 -10 13 -33 33 -33 19 0 46 27 37 37 -4 3 -13 0 -22
-7 -11 -9 -18 -10 -28 -1 -8 6 -17 8 -20 4z"/>
<path d="M340 780 c0 -5 13 -10 28 -10 l28 0 -1 -72 c0 -48 4 -73 13 -75 9 -4
12 15 12 71 0 74 1 76 25 76 14 0 25 5 25 10 0 6 -28 10 -65 10 -37 0 -65 -4
-65 -10z"/>
<path d="M487 733 c-3 -7 -2 -74 2 -106 1 -5 20 -7 44 -5 36 3 43 7 45 27 4
26 -12 41 -45 41 -18 0 -23 6 -23 25 0 23 -14 34 -23 18z m68 -78 c0 -5 -10
-11 -22 -13 -16 -2 -23 2 -23 13 0 11 7 15 23 13 12 -2 22 -7 22 -13z"/>
<path d="M600 681 c0 -43 4 -61 13 -61 17 0 17 112 -1 118 -9 3 -12 -14 -12
-57z"/>
<path d="M710 681 c0 -48 3 -61 15 -61 9 0 15 6 14 13 -4 28 2 37 26 37 20 0
25 -5 25 -25 0 -22 18 -37 21 -17 1 11 1 75 0 95 -2 27 -21 20 -21 -9 0 -22
-4 -25 -27 -22 -20 2 -28 9 -28 22 0 11 -6 21 -12 23 -10 4 -13 -12 -13 -56z"/>
<path d="M857 733 c-14 -13 -6 -22 19 -20 15 1 29 -4 31 -10 3 -8 -4 -13 -15
-13 -35 0 -52 -11 -52 -35 0 -26 18 -35 67 -33 32 1 32 1 29 48 -2 26 -6 53
-10 59 -8 12 -58 15 -69 4z m53 -72 c0 -6 -5 -13 -10 -16 -15 -9 -43 3 -35 15
8 13 45 13 45 1z"/>
<path d="M980 725 c-44 -53 2 -123 64 -99 27 10 18 22 -16 20 -31 -1 -33 1
-33 34 0 32 2 35 30 35 39 1 39 19 -1 23 -19 2 -36 -3 -44 -13z"/>
<path d="M1070 730 c0 -5 8 -10 19 -10 15 0 18 -7 17 -37 -3 -43 2 -63 15 -63
5 0 9 23 9 50 0 43 3 50 20 50 11 0 20 5 20 10 0 6 -22 10 -50 10 -27 0 -50
-4 -50 -10z"/>
<path d="M1208 729 c-21 -12 -25 -78 -6 -97 18 -18 63 -14 81 6 48 52 -15 127
-75 91z m60 -26 c12 -22 -2 -63 -21 -63 -32 0 -48 45 -25 68 17 17 36 15 46
-5z"/>
<path d="M1330 725 c-11 -13 -11 -20 0 -41 11 -19 11 -27 2 -36 -16 -16 -15
-28 1 -28 8 0 19 11 25 25 6 14 16 25 22 25 5 0 10 -11 10 -25 0 -14 6 -25 13
-25 10 0 15 63 8 113 -2 14 -68 7 -81 -8z m60 -20 c0 -8 -9 -15 -20 -15 -11 0
-20 7 -20 15 0 8 9 15 20 15 11 0 20 -7 20 -15z"/>
<path d="M1450 680 l0 -59 68 -3 c47 -2 66 -7 65 -15 -2 -7 4 -13 13 -13 13 0
15 7 10 33 -4 17 -7 51 -8 75 -1 27 -6 42 -15 42 -9 0 -13 -15 -13 -50 0 -38
-4 -50 -15 -50 -15 0 -16 5 -19 64 0 16 -7 31 -13 33 -9 3 -13 -10 -13 -46 0
-39 -4 -51 -15 -51 -8 0 -16 6 -16 13 -3 32 -6 63 -7 75 -1 6 -6 12 -12 12 -6
0 -10 -27 -10 -60z"/>
<path d="M1628 728 c-9 -26 -1 -102 10 -106 7 -2 12 0 12 5 0 15 50 67 51 52
1 -8 2 -23 3 -33 0 -11 7 -21 14 -23 9 -4 12 12 12 56 0 48 -3 61 -15 61 -8 0
-15 -6 -15 -13 0 -8 -11 -24 -25 -37 l-25 -23 0 36 c0 36 -13 50 -22 25z"/>
<path d="M1767 733 c-11 -23 4 -129 16 -112 2 2 15 19 30 37 l27 34 1 -29 c1
-15 1 -31 0 -35 0 -5 6 -8 14 -8 11 0 14 13 13 60 -1 40 -6 60 -14 60 -7 0
-15 -8 -19 -19 -3 -10 -14 -26 -25 -36 -20 -18 -20 -17 -20 18 0 33 -13 49
-23 30z"/>
</g>
</svg>
